<?xml version="1.0" encoding="utf-8"?>
<!-- Generator: Adobe Illustrator 13.0.0, SVG Export Plug-In . SVG Version: 6.00 Build 14948)  -->
<!DOCTYPE svg PUBLIC "-//W3C//DTD SVG 1.1//EN" "http://www.w3.org/Graphics/SVG/1.1/DTD/svg11.dtd">
<svg version="1.1" xmlns="http://www.w3.org/2000/svg" xmlns:xlink="http://www.w3.org/1999/xlink" x="0px" y="0px" width="595px"
	 height="595px" viewBox="0 0 595 595" enable-background="new 0 0 595 595" xml:space="preserve">
<g id="Слой_3">
	<path d="M494.963,19.989h-395c-44.111,0-80,35.888-80,80v395c0,44.112,35.889,80,80,80h395c44.111,0,80-35.888,80-80v-395
		C574.963,55.877,539.074,19.989,494.963,19.989z"/>
	
		<linearGradient id="SVGID_1_" gradientUnits="userSpaceOnUse" x1="296.8989" y1="-123.9854" x2="296.8989" y2="-230.9883" gradientTransform="matrix(1 0 0 -1 0 342.0029)">
		<stop  offset="0" style="stop-color:#000000"/>
		<stop  offset="0.2467" style="stop-color:#040404"/>
		<stop  offset="0.5165" style="stop-color:#121212"/>
		<stop  offset="0.7817" style="stop-color:#262626"/>
		<stop  offset="0.9001" style="stop-color:#131313"/>
		<stop  offset="0.9949" style="stop-color:#000000"/>
	</linearGradient>
	<path fill="url(#SVGID_1_)" d="M294.244,465.988c-82.866,0-145.497,8.175-186.152,24.297
		c-41.693,16.535-47.919,36.872-47.919,47.522c0,8.903,4.063,17.528,11.44,24.285c7.674,7.027,17.742,10.898,28.35,10.898h395
		c20.867,0,38.57-15.52,38.662-33.888c0.055-10.729-6.176-31.246-48.502-48.112c-41.391-16.491-105.121-24.903-189.418-25.002
		L294.244,465.988L294.244,465.988z"/>
	<linearGradient id="SVGID_2_" gradientUnits="userSpaceOnUse" x1="296.8989" y1="326.9917" x2="296.8989" y2="19.9893">
		<stop  offset="0" style="stop-color:#000000"/>
		<stop  offset="0.156" style="stop-color:#040404"/>
		<stop  offset="0.327" style="stop-color:#121212"/>
		<stop  offset="0.505" style="stop-color:#282828"/>
		<stop  offset="0.6867" style="stop-color:#464646"/>
		<stop  offset="0.7817" style="stop-color:#595959"/>
		<stop  offset="0.8384" style="stop-color:#464646"/>
		<stop  offset="0.9534" style="stop-color:#141414"/>
		<stop  offset="0.9949" style="stop-color:#000000"/>
	</linearGradient>
	<path fill="url(#SVGID_2_)" d="M294.244,326.992c-82.866,0-145.497-23.837-186.152-70.847
		c-41.693-48.21-47.919-107.51-47.919-138.567c0-25.961,4.063-51.109,11.44-70.811c7.674-20.491,17.742-26.778,28.35-26.778h395
		c20.867,0,38.57,40.25,38.662,93.812c0.055,31.283-6.176,91.107-48.502,140.285c-41.391,48.087-105.121,72.616-189.418,72.904
		L294.244,326.992L294.244,326.992z"/>
</g>
<g id="ship">
	<g>
		<path fill="#999999" d="M297.542,459.465c-43.075,0-87.444-13.853-121.735-38.009c-0.921-0.649-1.294-1.833-0.91-2.893
			c0.359-0.996,1.302-1.651,2.348-1.651c0.067,0,0.134,0.002,0.201,0.008c2.453,0.196,35.151,0.196,45.897,0.196
			c20.948,0,46.78-0.031,72.604-0.064h1.235c25.261-0.031,50.444-0.061,70.991-0.061c30.343,0,44.724,0.064,46.628,0.211
			c1.052,0.081,1.941,0.816,2.219,1.834c0.279,1.021-0.115,2.104-0.981,2.71C380.126,446.775,340.258,459.465,297.542,459.465
			L297.542,459.465z"/>
		<path fill="#1A1A1A" d="M177.247,419.413c1.952,0.156,20.38,0.204,46.196,0.204c20.89,0,46.621-0.032,72.352-0.063
			c25.74-0.032,51.485-0.063,72.414-0.063c25.863,0,44.37,0.048,46.4,0.205c-38.104,26.558-78.712,37.271-117.066,37.271
			C251.424,456.966,208.565,441.475,177.247,419.413L177.247,419.413z M177.271,414.415c-2.098,0-4.002,1.314-4.718,3.313
			c-0.758,2.117-0.023,4.478,1.815,5.772c16.441,11.581,35.781,21.166,55.931,27.717c21.937,7.132,44.561,10.748,67.244,10.748
			c20.478,0,40.692-2.992,60.082-8.893c21.011-6.394,41.146-16.244,59.844-29.276c1.733-1.208,2.521-3.376,1.965-5.416
			c-0.556-2.039-2.333-3.509-4.44-3.671c-1.409-0.108-8.069-0.219-46.784-0.219c-20.938,0-47.109,0.032-72.419,0.063l-0.336,0
			c-25.178,0.031-51.213,0.063-72.01,0.063c-28.702,0-44.111-0.063-45.8-0.188C177.518,414.419,177.394,414.415,177.271,414.415
			L177.271,414.415z"/>
	</g>
	<g>
		<path fill="#FBB03B" d="M403.87,406.089c-72.973,0-130.738-8.385-171.691-24.921c-36.986-14.938-59.301-36.59-64.532-62.618
			c-5.239-26.072,6.455-55.044,33.819-83.779c27.323-28.691,68.251-54.948,118.363-75.936c0.314-0.131,0.642-0.194,0.965-0.194
			c0.857,0,1.685,0.442,2.147,1.22c0.638,1.069,0.39,2.445-0.579,3.227c-28.176,22.701-47.84,45.903-58.445,68.956
			c-9.465,20.573-11.733,41.033-6.742,60.813c6.523,25.851,25.365,50.17,54.49,70.33c26.383,18.26,59.291,31.736,92.662,37.945
			c1.27,0.236,2.151,1.401,2.032,2.688C406.241,405.105,405.163,406.089,403.87,406.089L403.87,406.089z"/>
		<path fill="#1A1A1A" d="M320.794,161.141c-148.351,119.528-26.279,222.103,83.077,242.448
			C87.671,403.588,122.428,244.217,320.794,161.141L320.794,161.141z M320.792,156.14c-0.646,0-1.301,0.126-1.93,0.389
			c-50.427,21.119-91.648,47.579-119.207,76.518c-13.572,14.252-23.442,28.74-29.335,43.061
			c-6.131,14.898-7.855,29.344-5.125,42.934c5.404,26.893,28.243,49.176,66.049,64.443c41.25,16.658,99.331,25.104,172.627,25.104
			c2.584,0,4.742-1.968,4.979-4.541c0.237-2.572-1.524-4.902-4.063-5.375c-33.034-6.146-65.6-19.479-91.698-37.542
			c-28.621-19.81-47.117-43.63-53.489-68.887c-10.339-40.981,11.906-84.969,64.332-127.209c1.939-1.563,2.434-4.314,1.158-6.453
			C324.163,157.027,322.508,156.14,320.792,156.14L320.792,156.14z"/>
	</g>
	<g>
		<path fill="#999999" d="M308.078,346.184c-0.222,0-0.442-0.029-0.661-0.089c-1.088-0.3-1.84-1.286-1.84-2.412
			c0-1.757,0.031-9.996,0.072-21.734c0.141-38.169,0.43-117.593,0.213-123.417c-0.045-1.25,0.839-2.344,2.073-2.557
			c0.143-0.024,0.285-0.037,0.426-0.037c1.074,0,2.052,0.694,2.385,1.749c11.267,35.714,26.181,102.337-0.52,147.272
			C309.769,345.731,308.943,346.184,308.078,346.184L308.078,346.184z"/>
		<path fill="#1A1A1A" d="M308.36,198.44c14.977,47.472,22.889,106.248-0.282,145.242C308.078,336.054,308.644,206.07,308.36,198.44
			L308.36,198.44z M308.364,193.44c-0.283,0-0.569,0.024-0.856,0.074c-2.466,0.427-4.236,2.611-4.144,5.112
			c0.214,5.773-0.075,85.176-0.214,123.335c-0.042,11.586-0.072,19.958-0.072,21.722c0,2.251,1.505,4.225,3.676,4.821
			c0.439,0.121,0.885,0.179,1.324,0.179c1.731,0,3.381-0.903,4.299-2.446c27.196-45.77,12.145-113.188,0.752-149.301
			C312.464,194.827,310.511,193.44,308.364,193.44L308.364,193.44z"/>
	</g>
	<g>
		<path fill="#FBB03B" d="M331.251,352.965c-0.938,0-1.818-0.529-2.245-1.403c-0.521-1.061-0.226-2.341,0.706-3.068
			c27.545-21.506,27.31-55.105,22.261-79.505c-5.657-27.333-19.842-55.095-30.63-69.319c-0.792-1.047-0.642-2.531,0.349-3.394
			c0.473-0.413,1.059-0.617,1.645-0.617c0.64,0,1.277,0.244,1.764,0.728c22.763,22.675,39.313,44.158,49.193,63.852
			c9.923,19.775,12.897,37.293,8.843,52.064c-5.403,19.69-22.654,33.346-51.272,40.585
			C331.659,352.94,331.453,352.965,331.251,352.965L331.251,352.965z"/>
		<path fill="#1A1A1A" d="M323.337,198.158c75.165,74.882,79.403,134.222,7.913,152.307
			C384.091,309.209,342.835,223.872,323.337,198.158L323.337,198.158z M323.336,193.158c-1.171,0-2.344,0.409-3.288,1.234
			c-1.979,1.729-2.282,4.693-0.695,6.787c10.622,14.008,24.595,41.363,30.172,68.317c7.134,34.48-0.05,60.396-21.352,77.027
			c-1.863,1.456-2.453,4.017-1.413,6.14c0.854,1.745,2.616,2.802,4.489,2.802c0.407,0,0.818-0.05,1.228-0.153
			c14.521-3.673,26.387-9.109,35.265-16.156c9.007-7.149,14.998-15.96,17.806-26.19c4.223-15.385,1.188-33.502-9.019-53.847
			c-10.001-19.936-26.71-41.638-49.663-64.503C325.894,193.647,324.616,193.158,323.336,193.158L323.336,193.158z"/>
	</g>
	<g>
		<path fill="#999999" d="M308.078,154.003c-0.405,0-0.805-0.165-1.094-0.474c-11.777-12.552-3.087-32.834-0.23-39.5
			c0.239-0.561,0.787-0.908,1.378-0.908c0.103,0,0.206,0.01,0.312,0.033c0.7,0.146,1.196,0.768,1.188,1.485
			c-0.037,3.063-0.054,37.519-0.054,37.864c0,0.616-0.375,1.168-0.948,1.395C308.451,153.969,308.264,154.003,308.078,154.003
			L308.078,154.003z"/>
		<path fill="#1A1A1A" d="M308.131,114.622c-0.035,3.108-0.053,37.882-0.053,37.882C297.624,141.36,304.316,123.523,308.131,114.622
			L308.131,114.622z M308.13,111.622c-1.18,0-2.276,0.699-2.757,1.819c-2.951,6.887-11.933,27.846,0.518,41.116
			c0.578,0.617,1.375,0.948,2.188,0.948c0.37,0,0.744-0.068,1.103-0.21c1.144-0.453,1.896-1.558,1.896-2.789
			c0-0.348,0.018-34.793,0.053-37.85c0.016-1.431-0.98-2.673-2.38-2.969C308.543,111.643,308.335,111.622,308.13,111.622
			L308.13,111.622z"/>
	</g>
</g>
<g id="border">
	<path fill="#FBB03B" d="M495,0c55.229,0,100,44.771,100,100v395c0,55.229-44.771,100-100,100H100C44.771,595,0,550.229,0,495V100
		C0,44.771,44.771,0,100,0H495L495,0z M495,20H100c-44.112,0-80,35.888-80,80v395c0,44.112,35.888,80,80,80h395
		c44.112,0,80-35.888,80-80V100C575,55.888,539.112,20,495,20L495,20z"/>
	<path fill="none" stroke="#B2B2B2" stroke-width="3" d="M562,492.81c0,38.213-31.096,69.19-69.453,69.19H102.453
		C64.095,562,33,531.022,33,492.81V104.19C33,65.978,64.095,35,102.453,35h390.094C530.904,35,562,65.978,562,104.19V492.81z"/>
	<polygon fill="#FFFFFF" points="504.581,80.146 407.275,81.309 504.318,82.24 467.084,104.115 506.5,84.16 507.575,187.893 
		508.77,84.334 545.743,129.714 510.515,82.676 583.441,81.542 511.562,80.582 549.465,58.037 509.206,78.487 508.041,6.607 
		506.675,78.138 477.266,44.016 	"/>
</g>
</svg>
